<svg id="Lager_1" data-name="Lager 1" xmlns="http://www.w3.org/2000/svg" viewBox="0 0 283.46 83.62"><defs><style>.cls-1{fill:none;stroke-width:1.25px;}.cls-1,.cls-3{stroke:#fff;}.cls-2,.cls-3{fill:#fff;}.cls-3{stroke-miterlimit:10;stroke-width:0.5px;}</style></defs><line class="cls-1" x1="78.6" y1="71.57" x2="78.6" y2="12.05"/><path class="cls-2" d="M67.26,43.9C63.75,46.23,60.4,49,55.32,49c-5.87,0-10.82-2.72-11.76-8.62-.69-4.3-.78-15.72-.78-19.59V16.3h.09C45.19,21.13,49.33,24,49.33,29c0,2.46-.81,4.06-2,6.4-.63,1.23-1.58,2.79-1.58,4.23,0,.85.4,1.67,1.86,1.67,2.88,0,4.5-1.5,8.23-1.5,4.28,0,7.33,1.55,11.46,4Z"/><path class="cls-2" d="M16.24,43.8c4.13-2.47,7.18-4,11.45-4,3.74,0,5.36,1.5,8.24,1.5,1.46,0,1.86-.82,1.86-1.67,0-1.44-.95-3-1.59-4.23-1.22-2.34-2-3.94-2-6.4,0-5,4.13-7.85,6.46-12.68h.09v4.43c0,3.91-.09,15.33-.78,19.63C39,46.26,34.05,49,28.17,49c-5.08,0-8.42-2.75-11.93-5.08Z"/><path class="cls-2" d="M30.75,56.62c-.48-.81-1.65-1.48-3.64-1.48-1.46,0-2.55.45-2.55,1.66,0,2.74,6.83,2.22,6.83,6.46,0,2.46-1.78,4.06-5.29,4.06a11.35,11.35,0,0,1-4.27-.7,12.37,12.37,0,0,1,0-3h.1a5.29,5.29,0,0,0,4.34,1.77c1.62,0,2.48-.65,2.48-1.76,0-2.75-6.75-2-6.75-6.42,0-2.43,1.84-3.95,5.3-3.95a10.33,10.33,0,0,1,3.55.54,8.27,8.27,0,0,1,.07,1.25,15.29,15.29,0,0,1-.07,1.55Z"/><path class="cls-2" d="M42.22,65.12c2.09,0,3.07-.24,3.69-.81H46a17,17,0,0,1-.65,2.84H35.5v-.1c.59-.36.87-.69.87-1.85V57.52c0-2.64,0-3.29-.8-3.89v-.11c.38,0,1.09-.07,2-.07s1.88,0,2.32.09v.1c-.93.69-1,1.24-1,3.88v7.6Z"/><path class="cls-2" d="M49.18,57.5c0-2.62,0-3.17-1-3.86v-.1c.35,0,1.23-.09,2.12-.09.5,0,1,0,1.43,0,0,.5-.08,1.33-.08,4v4.59c0,2,.29,3,2.25,3A6.47,6.47,0,0,0,57.64,64a.93.93,0,0,0,.28-.84V57.56c0-2.68,0-3.21-1-3.92v-.1c.34,0,1.22-.09,2.15-.09.47,0,.92,0,1.4,0,0,.5-.09,1.33-.09,4v6.34c0,1.15.14,2.58,1.12,3.22v.07H58.61a3.68,3.68,0,0,1-.5-1.24,8.09,8.09,0,0,1-4.74,1.41c-3.21,0-4.19-1.58-4.19-4.1Z"/><path class="cls-3" d="M100.51,49.51l-1.58-4.43H93.42L91.8,49.51h-2L95.26,35h2l5.26,14.47ZM96.24,37.42l-2.21,6h4.32Z"/><path class="cls-3" d="M114.77,49.51l-4-6.15h-3.73v6.15H105.2V35h6.52c2.77,0,4.69,1.32,4.69,4.23a3.69,3.69,0,0,1-3.4,4l4.06,6.27Zm-3.42-7.76c1.66,0,3.16-.5,3.16-2.48,0-1.62-1.05-2.63-2.89-2.63h-4.53v5.11Z"/><path class="cls-3" d="M124.59,36.72V49.51h-1.92V36.72h-4.35V35h10.6v1.68Z"/><path class="cls-3" d="M137.37,35c3.48,0,6.14,2.44,6.14,7.26,0,3.61-1.47,7.21-6.7,7.21h-5.18V35Zm-3.75,12.79H137c3,0,4.51-2.13,4.51-5.55,0-3.14-1.34-5.54-4.61-5.54h-3.32Z"/><path class="cls-3" d="M155.81,49.51l-1.57-4.43h-5.52l-1.62,4.43h-2L150.57,35h2l5.26,14.47Zm-4.26-12.09-2.21,6h4.32Z"/><path class="cls-3" d="M163.73,36.72V49.51H161.8V36.72h-4.34V35h10.59v1.68Z"/><path class="cls-3" d="M178.67,49.51l-1.58-4.43h-5.51L170,49.51h-2.05L173.43,35h2l5.27,14.47Zm-4.26-12.09-2.21,6h4.32Z"/><path class="cls-3" d="M183.35,35h7c2.07,0,4.16,1.29,4.16,3.71a3.16,3.16,0,0,1-2.22,3.14,3.47,3.47,0,0,1,2.65,3.63c0,3.21-2.73,4-4.53,4h-7Zm6.11,6.09c1.29,0,3-.25,3-2.27,0-1.19-.68-2.12-2.48-2.12h-4.78v4.39Zm.41,6.68c1.41,0,3-.23,3-2.44,0-1.74-1.23-2.6-3-2.6h-4.76v5Z"/><path class="cls-3" d="M207.66,49.51l-1.58-4.43h-5.51L199,49.51h-2L202.41,35h2l5.27,14.47ZM203.4,37.42l-2.22,6h4.33Z"/><path class="cls-3" d="M221.93,49.51,214,37.75s.18,11.47.18,11.76h-1.82V35h1.82L222,46.64s-.08-11.15-.08-11.6h1.74V49.51Z"/><path class="cls-3" d="M236.73,49.51l-5.09-7.13-2,2.09v5h-1.92V35h1.92v7.07L236.46,35h2.38L233,41l6.1,8.48Z"/><path class="cls-3" d="M241.75,49.51V35h10v1.7H243.6v4.47h7.05v1.68H243.6v4.94H252v1.68Z"/><path class="cls-3" d="M265,49.51l-7.93-11.76s.18,11.47.18,11.76h-1.82V35h1.82l7.83,11.6S265,35.49,265,35h1.74V49.51Z"/></svg>